<svg version="1.0" xmlns="http://www.w3.org/2000/svg"
 width="44" height="44" viewBox="0 0 512 512"
 preserveAspectRatio="xMidYMid meet">

<g transform="translate(0.000000,512.000000) scale(0.100000,-0.100000)"
fill="#ffffff" stroke="none">
<path d="M2380 5110 c-691 -50 -1332 -377 -1777 -905 -245 -292 -437 -668
-526 -1035 -95 -386 -95 -834 0 -1220 85 -350 268 -719 494 -996 351 -432 847
-747 1379 -877 386 -95 834 -95 1220 0 532 130 1028 445 1379 877 226 277 409
646 494 996 95 386 95 834 0 1220 -246 1007 -1092 1773 -2118 1919 -164 23
-396 32 -545 21z m540 -195 c1032 -163 1833 -969 1997 -2005 25 -162 25 -538
0 -700 -164 -1041 -966 -1843 -2007 -2007 -162 -25 -538 -25 -700 0 -1041 164
-1843 966 -2007 2007 -25 162 -25 538 0 700 122 771 602 1432 1292 1778 269
135 510 204 855 246 82 10 469 -3 570 -19z"/>
<path d="M2350 4689 c-246 -25 -497 -97 -725 -209 -232 -113 -395 -229 -575
-410 -100 -100 -260 -293 -260 -313 0 -4 169 -7 375 -7 l375 0 0 -105 0 -105
-141 0 c-113 0 -140 -3 -137 -13 2 -8 174 -496 383 -1086 l379 -1072 17 48 c9
26 105 300 213 609 108 308 196 564 196 568 0 4 -68 199 -151 434 -83 235
-158 446 -166 470 l-15 42 -149 0 -149 0 0 105 0 105 665 0 665 0 0 -105 0
-105 -155 0 c-85 0 -155 -2 -155 -4 0 -2 464 -1316 754 -2133 11 -32 14 -24
100 220 241 687 266 773 288 986 19 187 -12 379 -88 557 -34 79 -77 148 -237
382 -69 101 -82 144 -68 224 21 121 86 219 186 283 61 39 112 57 187 64 l58 6
-91 75 c-299 249 -668 415 -1057 476 -122 19 -398 26 -522 13z"/>
<path d="M4438 3440 c3 -115 0 -185 -13 -270 -10 -63 -19 -126 -20 -140 -4
-35 -36 -126 -454 -1294 -204 -572 -370 -1043 -369 -1047 2 -5 38 13 81 39
276 168 515 400 697 677 242 370 368 866 332 1312 -22 271 -90 526 -201 758
l-57 120 4 -155z"/>
<path d="M550 3293 c-197 -544 -164 -1159 91 -1672 153 -308 372 -575 632
-767 103 -77 265 -180 271 -173 5 6 -948 2699 -956 2699 -3 0 -20 -39 -38 -87z"/>
<path d="M2245 1429 c-175 -464 -324 -858 -331 -875 l-13 -31 102 -27 c153
-40 238 -54 410 -67 230 -18 496 8 713 69 l62 17 -304 860 c-167 473 -307 868
-312 879 -6 14 -92 -204 -327 -825z"/>
</g>
</svg>
